<?xml version="1.0" encoding="UTF-8"?>
<svg xmlns="http://www.w3.org/2000/svg" width="936" height="126" viewBox="0 0 936 126" fill="none"><path fill-rule="evenodd" clip-rule="evenodd" d="M468.906 25.0899C471.462 25.0899 473.764 26.6421 474.721 29.0128L489.927 66.6481C490.228 67.3947 490.384 68.1927 490.384 68.998C490.384 72.4622 487.576 75.2705 484.111 75.2705L467.83 75.2702L451.549 75.2705C448.085 75.2705 445.277 72.4622 445.277 68.998C445.277 68.1927 445.432 67.3947 445.734 66.6481L460.939 29.0128C461.897 26.6421 464.198 25.0899 466.755 25.0899H468.906ZM448.748 -0.00012207C442.173 -0.00012207 436.256 3.99132 433.793 10.0875L387.184 125.45H421.976L430.528 104.283C431.486 101.912 433.787 100.36 436.344 100.36H499.317C501.873 100.36 504.175 101.912 505.132 104.283L513.685 125.45H548.477L501.867 10.0875C499.404 3.99132 493.487 -0.00012207 486.912 -0.00012207H448.748Z" fill="#F27A22"/><path fill-rule="evenodd" clip-rule="evenodd" d="M661.417 56.2146C663.081 56.2146 664.677 55.5535 665.853 54.3772L714.397 4.8587C717.437 1.7109 721.559 0.000427246 725.935 0.000427246C734.843 0.000427246 742.064 7.22168 742.064 16.1296V125.45H709.771L709.806 60.7319C709.806 57.2677 706.998 54.4594 703.534 54.4594C701.87 54.4594 700.274 55.1204 699.098 56.2968L672.823 83.0921C669.798 86.117 665.695 87.8164 661.417 87.8164C657.14 87.8164 653.037 86.117 650.012 83.0921L623.737 56.2968C622.561 55.1204 620.965 54.4594 619.302 54.4594C615.837 54.4594 613.029 57.2677 613.029 60.7319L613.064 125.45H580.771V16.1296C580.771 7.22168 587.992 0.000427246 596.9 0.000427246C601.276 0.000427246 605.399 1.7109 608.438 4.8587L656.982 54.3772C658.159 55.5535 659.754 56.2146 661.417 56.2146Z" fill="#F27A22"/><path fill-rule="evenodd" clip-rule="evenodd" d="M774.324 125.451H806.583V31.3359C806.597 27.8921 809.385 25.105 812.827 25.0903H929.346C932.809 25.0903 935.618 22.2816 935.618 18.8177L935.617 6.29999C935.664 2.83609 932.786 0.000549316 929.346 0.000549316H790.453C781.545 0.000549316 774.324 7.22269 774.324 16.1294V125.451ZM845.039 75.27L897.154 75.2686C900.588 75.2335 903.359 72.4398 903.359 68.9974V56.4797C903.405 53.0442 900.569 50.2166 897.154 50.1814H845.129C841.665 50.1829 838.836 52.9914 838.856 56.4539V68.999C838.836 72.4317 841.616 75.2202 845.039 75.27Z" fill="#F27A22"/><path fill-rule="evenodd" clip-rule="evenodd" d="M32.3053 94.0897V31.3649C32.3053 27.9013 35.1138 25.0927 38.5792 25.0927H120.583C125.779 25.0927 129.991 29.3049 129.991 34.502C129.991 35.7095 129.759 36.9067 129.306 38.0266L125.974 46.2606C125.016 48.6301 122.715 50.1824 120.158 50.1824H70.8505C67.3869 50.1838 64.5579 52.9924 64.5783 56.455V68.9999C64.5579 72.4624 67.3869 75.2711 70.8505 75.2725H120.158C122.715 75.2725 125.016 76.8247 125.974 79.1942L129.306 87.4282C129.759 88.5482 129.991 89.7449 129.991 90.9528C129.991 96.1498 125.779 100.362 120.583 100.362H38.5792C35.1138 100.362 32.3053 97.5536 32.3053 94.0897ZM0 125.452H123.658C144.444 125.452 161.293 108.602 161.293 87.8171C161.293 82.9849 160.363 78.1983 158.553 73.7188L155.543 66.2505C155.089 65.1306 154.857 63.9352 154.857 62.7274C154.857 61.5195 155.089 60.3239 155.543 59.2039L158.553 51.736C160.363 47.2562 161.293 42.47 161.293 37.6375C161.293 16.8533 144.444 0.00262451 123.658 0.00262451H16.0251C7.16399 0.0593245 0 7.25851 0 16.1317V125.452Z" fill="#F27A22"/><path fill-rule="evenodd" clip-rule="evenodd" d="M354.891 125.451H320.099L306.477 91.7396C305.519 89.3687 303.218 87.8165 300.661 87.8165H264.506C261.042 87.815 258.213 85.0064 258.233 81.5439V68.999C258.213 65.5364 261.042 62.7278 264.506 62.7264H300.594C303.15 62.7264 305.452 61.1742 306.409 58.8033L314.869 38.0242C315.323 36.9042 315.555 35.7075 315.555 34.4996C315.555 29.304 311.343 25.0917 306.146 25.0917H232.176C228.712 25.0917 225.904 27.8988 225.904 31.3641V125.451H193.598V16.1307C193.598 7.22264 200.819 0.000549316 209.727 0.000549316H309.222C330.007 0.000549316 346.857 16.8508 346.857 37.6367C346.857 42.4675 345.926 47.2551 344.116 51.7336L336.037 71.7469C335.585 72.8668 335.352 74.0636 335.352 75.2715C335.352 76.4793 335.585 77.6761 336.037 78.7961L354.891 125.451Z" fill="#F27A22"/></svg>