
        <svg xmlns="http://www.w3.org/2000/svg" xmlns:xlink="http://www.w3.org/1999/xlink" version="1.1" width="3176.470588235294" height="1089.5828861695484" viewBox="0 0 3176.470588235294 1089.5828861695484">
			
			<g transform="scale(8.823529411764707) translate(10, 10)">
				<defs id="SvgjsDefs1319"><linearGradient id="SvgjsLinearGradient1326"><stop id="SvgjsStop1327" stop-color="#6d7cff" offset="0"/><stop id="SvgjsStop1328" stop-color="#ff51ff" offset="1"/></linearGradient></defs><g id="SvgjsG1320" featureKey="symbolFeature-0" transform="matrix(1.0024883236023008,0,0,1.0024883236023008,346.8603480960814,-255.5898561385813)" fill="#000"><path xmlns="http://www.w3.org/2000/svg" d="M-246.455,327.152l-16.86-64.454c0,0-1.243-4.756-6.002-4.75l-72.96,0.08c0,0-4.759,0.004-3.515,4.761l15.835,60.538  c7.148-15.684,15.203-33.301,15.795-34.599l0.423-0.924l21.84-0.021l-1.048,2.253c-5.985,12.87-13.768,29.775-19.236,41.944  l62.212-0.067C-249.97,331.912-245.211,331.906-246.455,327.152z"/><path xmlns="http://www.w3.org/2000/svg" d="M-296.864,290.954l-14.839,0.015c-9.094,19.892-25.758,56.396-26.425,58.074c-1.594,4.007,0.346,6.235,1.171,6.957h56.176  l-1.875-4.804h-35.137c-0.044,0.002-0.107,0.005-0.184,0.005c-1.988,0-3.998-1.204-4.006-3.894  c-0.002-0.629-0.004-1.579,13.149-30.369C-303.924,306.194-298.966,295.487-296.864,290.954z"/></g><g id="SvgjsG1321" featureKey="nameFeature-0" transform="matrix(2.61984165842094,0,0,2.61984165842094,110.43155262275897,-30.853871333589122)" fill="#000"><path d="M3.6523 40 l0 -28.223 l5.8594 0 l0 28.223 l-5.8594 0 z M34.072734374999996 11.777000000000001 l0 5.1563 l-6.6992 0 l0 23.066 l-5.8008 0 l0 -23.066 l-6.7383 0 l0 -5.1563 l19.238 0 z M54.31671875 40 l-7.3438 -12.422 l-1.6992 0 l0 12.422 l-5.8594 0 l0 -28.223 l10.234 0 c6.3867 0 9.082 3.7695 9.082 8.4375 c0 3.7891 -2.1484 6.25 -5.9766 7.0703 l8.4961 12.715 l-6.9336 0 z M45.27341875 16.641 l0 6.7383 l3.457 0 c3.125 0 4.3945 -1.3281 4.3945 -3.3594 c0 -2.0117 -1.2695 -3.3789 -4.3945 -3.3789 l-3.457 0 z M87.626734375 11.777000000000001 l-9.2773 14.707 l0 13.516 l-5.8789 0 l0 -13.379 l-9.3359 -14.844 l6.4844 0 l5.7617 9.6094 l5.7813 -9.6094 l6.4648 0 z"/></g><g id="SvgjsG1322" featureKey="sloganFeature-0" transform="matrix(1.3436753480430161,0,0,1.3436753480430161,119.60563135710937,76.35012008384551)" fill="#000"><path d="M11.27 20 l-1.0254 -2.9102 l-5.9277 0 l-1.0254 2.9102 l-2.998 0 l5.1953 -14.111 l3.584 0 l5.1953 14.111 l-2.998 0 z M5.1758 14.6387 l4.209 0 l-2.0996 -5.9863 z M19.316446875 17.4121 l4.4238 0 l0 2.5879 l-7.3535 0 l0 -14.111 l2.9297 0 l0 11.523 z M28.271490625 20 l-3.6914 -14.111 l3.0469 0 l2.7539 10.684 l3.1543 -10.684 l2.4707 0 l3.1348 10.684 l2.7832 -10.684 l3.0371 0 l-3.6914 14.111 l-3.7695 0 l-2.7344 -8.7207 l-2.7246 8.7207 l-3.7695 0 z M56.660624999999996 20 l-1.0254 -2.9102 l-5.9277 0 l-1.0254 2.9102 l-2.998 0 l5.1953 -14.111 l3.584 0 l5.1953 14.111 l-2.998 0 z M50.566425 14.6387 l4.209 0 l-2.0996 -5.9863 z M72.363171875 5.888999999999999 l-4.6387 7.3535 l0 6.7578 l-2.9395 0 l0 -6.6895 l-4.668 -7.4219 l3.2422 0 l2.8809 4.8047 l2.8906 -4.8047 l3.2324 0 z M79.03323125 20.19531 c-3.0273 0 -5.3906 -1.4551 -5.8203 -4.1016 l3.0273 -0.69336 c0.19531 1.582 1.3574 2.4023 2.9102 2.4023 c1.1914 0 2.1387 -0.52734 2.1289 -1.7188 c-0.0097656 -1.3281 -1.5723 -1.748 -3.291 -2.2754 c-2.0703 -0.64453 -4.2871 -1.4063 -4.2871 -4.0039 c0 -2.627 2.1484 -4.1113 4.9805 -4.1113 c2.4805 0 4.9805 1.0059 5.5469 3.7109 l-2.832 0.70313 c-0.26367 -1.4063 -1.2109 -2.0215 -2.5391 -2.0215 c-1.1816 0 -2.1875 0.48828 -2.1875 1.6504 c0 1.084 1.3867 1.4453 2.9883 1.9238 c2.1289 0.64453 4.6484 1.4648 4.6484 4.2773 c0 2.998 -2.5098 4.2578 -5.2734 4.2578 z M100.390859375 5.888999999999999 l0 2.5781 l-3.3496 0 l0 11.533 l-2.9004 0 l0 -11.533 l-3.3691 0 l0 -2.5781 l9.6191 0 z M110.05855 20 l-3.6719 -6.2109 l-0.84961 0 l0 6.2109 l-2.9297 0 l0 -14.111 l5.1172 0 c3.1934 0 4.541 1.8848 4.541 4.2188 c0 1.8945 -1.0742 3.125 -2.9883 3.5352 l4.248 6.3574 l-3.4668 0 z M105.53715 8.32 l0 3.3691 l1.7285 0 c1.5625 0 2.1973 -0.66406 2.1973 -1.6797 c0 -1.0059 -0.63477 -1.6895 -2.1973 -1.6895 l-1.7285 0 z M126.25965625 5.888999999999999 l-4.6387 7.3535 l0 6.7578 l-2.9395 0 l0 -6.6895 l-4.668 -7.4219 l3.2422 0 l2.8809 4.8047 l2.8906 -4.8047 l3.2324 0 z M128.242215625 20 l0 -14.111 l2.9297 0 l0 14.111 l-2.9297 0 z M144.45328125 5.888999999999999 l2.9199 0 l0 14.111 l-3.3887 0 l-6.25 -10.088 l0 10.088 l-2.9199 0 l0 -14.111 l3.3496 0 l6.2891 10.029 l0 -10.029 z M157.12891875 20.19531 c-4.0723 0 -7.0703 -2.8125 -7.0703 -7.2168 c0 -4.4629 3.0664 -7.2852 7.2168 -7.2852 c2.7246 0 4.9805 1.2012 6.2109 3.3203 l-2.5684 1.3672 c-0.74219 -1.4453 -2.0703 -2.1387 -3.6426 -2.1387 c-2.4414 0 -4.2773 1.6797 -4.2773 4.668 c0 2.8809 1.7188 4.7363 4.3848 4.7363 c1.8066 0 3.4668 -0.89844 3.8672 -2.959 l-3.8574 0 l0 -2.3535 l6.6309 0 l0 7.666 l-2.3047 0 l0 -1.9531 c-0.9082 1.3379 -2.4316 2.1484 -4.5898 2.1484 z"/></g>
			</g>
		</svg>
	