<?xml version="1.0" encoding="UTF-8"?>
<!DOCTYPE svg PUBLIC "-//W3C//DTD SVG 1.1//EN" "http://www.w3.org/Graphics/SVG/1.1/DTD/svg11.dtd">
<!-- Creator: CorelDRAW 2021.5 -->
<svg xmlns="http://www.w3.org/2000/svg" xml:space="preserve" width="77.5759mm" height="23.8414mm" version="1.1" style="shape-rendering:geometricPrecision; text-rendering:geometricPrecision; image-rendering:optimizeQuality; fill-rule:evenodd; clip-rule:evenodd" viewBox="0 0 1410.22 433.4" xmlns:xlink="http://www.w3.org/1999/xlink" xmlns:xodm="http://www.corel.com/coreldraw/odm/2003">
 <defs>
  <style type="text/css">
   <![CDATA[
    .fil1 {fill:#FEFEFE;fill-rule:nonzero}
    .fil2 {fill:#0097B3;fill-rule:nonzero}
    .fil0 {fill:#0F4658;fill-rule:nonzero}
   ]]>
  </style>
 </defs>
 <g id="Слой_x0020_1">
  <metadata id="CorelCorpID_0Corel-Layer"/>
  <path class="fil0" d="M216.7 433.4c119.68,0 216.7,-97.02 216.7,-216.7 0,-119.68 -97.02,-216.7 -216.7,-216.7 -119.68,0 -216.7,97.02 -216.7,216.7 0,119.68 97.02,216.7 216.7,216.7z"/>
  <path class="fil1" d="M107.76 280.82c-35.25,20.8 -57.77,43.04 -60.62,65.81l-0.22 -1.12c0.02,2.05 0.1,4.1 0.24,6.15 24.23,30.4 56.46,54.12 93.5,68.01 -28.94,-45.56 -45.63,-99.4 -32.9,-138.85z"/>
  <path class="fil1" d="M134.52 266.45c-4.81,34.25 1.14,71.11 18.44,107.16 3.82,7.96 7.79,15.67 11.9,23.14l50.32 -58.33c-12.15,-33.82 -17.99,-67.85 -16.83,-98.91 -23.24,8.55 -44.74,17.57 -63.83,26.95z"/>
  <path class="fil1" d="M280.19 213.12c-16.44,4.67 -32.52,9.56 -48.05,14.65 0.27,11.19 1.18,22.43 2.66,33.59 1.94,14.57 5.04,29.13 9.2,43.63l58.19 -67.46c-1.16,-9.92 -1.85,-19.93 -1.99,-29.97 -6.76,1.85 -13.43,3.69 -20.01,5.57z"/>
  <path class="fil1" d="M304.99 18.75c-17.03,11.8 -46.09,37.47 -58.73,65.48 19.16,-17.49 53.64,-32.09 96.4,-43.88 -11.74,-8.4 -24.35,-15.65 -37.67,-21.6z"/>
  <path class="fil1" d="M360.94 54.99c-80.43,19.71 -149.29,47.91 -190.71,88.42 -17.44,17.06 -25.61,27.88 -34.08,48.86 41.36,-48.74 149.8,-79.59 258.53,-99.21 -9.73,-13.98 -21.06,-26.76 -33.73,-38.07z"/>
  <path class="fil1" d="M407.02 113c-56.23,10.56 -105.02,22.22 -142.11,33.32 -88.34,26.45 -165.63,62.47 -205.32,101.88 -21.52,21.36 -34.89,45.24 -33.63,71.43 1.02,1.89 2.08,3.76 3.16,5.62 14.26,-47.89 113.29,-93.08 231.57,-126.63 49.21,-13.96 105.39,-25.9 165.9,-36.06 -4.49,-17.47 -11.11,-34.09 -19.57,-49.57z"/>
  <path class="fil0" d="M616.97 198.2l-90.8 0 0 180.05 36.53 0 0 -145.33 54.27 0 0 -34.73zm56.33 145.33l0 -39.87 51.18 0 0 -33.44 -51.18 0 0 -37.3 56.33 0 0 -34.73 -92.86 0 0 180.05 95.43 0 0 -34.72 -58.9 0zm137.09 37.81c18.35,0 32.67,-5.44 42.95,-16.33 10.29,-10.89 15.44,-25.93 15.44,-45.14l0 -63.28c0,-19.21 -5.14,-34.25 -15.44,-45.14 -10.29,-10.89 -24.61,-16.33 -42.95,-16.33 -18.35,0 -32.67,5.44 -42.95,16.33 -10.29,10.89 -15.44,25.94 -15.44,45.14l0 63.28c0,19.21 5.15,34.25 15.44,45.14 10.29,10.89 24.61,16.33 42.95,16.33zm0 -35.5c-6.86,0 -12.01,-2.19 -15.43,-6.56 -3.44,-4.37 -5.14,-10.85 -5.14,-19.42l0 -63.28c0,-8.57 1.71,-15.05 5.14,-19.42 3.42,-4.37 8.57,-6.56 15.43,-6.56 6.86,0 12.01,2.19 15.44,6.56 3.42,4.37 5.14,10.85 5.14,19.42l0 63.28c0,8.57 -1.72,15.04 -5.14,19.42 -3.43,4.37 -8.58,6.56 -15.44,6.56zm135.56 35.5c18.34,0 32.53,-4.98 42.57,-14.92 10.03,-9.94 15.21,-24.34 15.56,-43.21l-36.52 0c-0.52,7.89 -2.49,13.63 -5.92,17.23 -3.43,3.6 -8.66,5.41 -15.69,5.41 -11.67,0 -17.5,-7.55 -17.5,-22.64l0 -69.97c0,-15.43 5.83,-23.15 17.5,-23.15 7.03,0 12.17,1.8 15.43,5.4 3.26,3.6 5.14,9.52 5.66,17.75l36.53 0c-0.69,-19.03 -5.92,-33.57 -15.69,-43.6 -9.77,-10.03 -23.66,-15.05 -41.67,-15.05 -17.67,0 -31.39,5.06 -41.16,15.18 -9.77,10.12 -14.66,24.61 -14.66,43.47l0 69.97c0,18.69 4.84,33.05 14.53,43.08 9.68,10.04 23.36,15.05 41.03,15.05zm79.22 -3.09l35.75 0 30.35 -69.7c2.06,-4.97 6,-15.35 11.83,-31.12l4.63 -12.87 0.77 0.78c-1.2,10.8 -2.19,23.57 -2.96,38.32 -0.77,14.75 -1.15,27.44 -1.15,38.07l0 36.52 35.5 0 0 -180.05 -35.75 0 -34.21 78.19c-2.23,5.14 -5.06,12.43 -8.49,21.86l-4.63 12.61 -0.77 -0.78c1.37,-10.8 2.48,-23.02 3.35,-36.65 0.85,-13.63 1.28,-24.82 1.28,-33.57l0 -41.67 -35.5 0 0 180.05zm220.43 -180.05l0 72.02 -37.04 0 0 -72.02 -36.78 0 0 180.05 36.78 0 0 -73.31 37.04 0 0 73.31 36.78 0 0 -180.05 -36.78 0zm164.62 0l-108.03 0 0 34.73 35.24 0 0 145.33 37.56 0 0 -145.33 35.24 0 0 -34.73z"/>
  <path class="fil2" d="M578.23 167.39l8.49 0 -39.63 -62.28 35.39 -47.82 -8.8 0 -33.5 45.46 -6.93 9.75 0 -55.2 -7.08 0 0 110.1 7.08 0 0 -43.88 9.29 -12.27 35.7 56.15zm70.62 0l7.55 0 -29.1 -110.1 -8.02 0 -29.09 110.1 7.55 0 7.23 -28.15 36.65 0 7.24 28.15zm-42.15 -34.76l11.48 -45.14 5.04 -20.92 0.16 0 5.03 20.92 11.48 45.14 -33.19 0zm98.46 -22.02c11.95,-3.35 17.93,-11.85 17.93,-25.48 0,-9.44 -2.49,-16.75 -7.47,-21.95 -4.98,-5.19 -11.77,-7.79 -20.37,-7.79 -8.8,0 -15.76,2.7 -20.84,8.1 -5.09,5.41 -7.89,12.93 -8.41,22.57l7.24 0c0.52,-7.65 2.62,-13.52 6.29,-17.62 3.67,-4.09 8.86,-6.14 15.57,-6.14 6.6,0 11.74,1.94 15.41,5.82 3.67,3.88 5.51,9.38 5.51,16.51 0,7.45 -2.02,13.08 -6.06,16.91 -4.03,3.83 -9.51,5.74 -16.44,5.74l-9.59 0 0 6.77 9.59 0c7.55,0 13.56,2.07 18.01,6.21 4.45,4.14 6.68,10.15 6.68,18.01 0,7.45 -2.07,13.31 -6.21,17.62 -4.14,4.3 -9.73,6.45 -16.75,6.45 -6.82,0 -12.29,-2.1 -16.44,-6.29 -4.14,-4.19 -6.53,-10.01 -7.16,-17.46l-7.24 0c0.53,9.43 3.57,16.91 9.13,22.41 5.55,5.5 12.9,8.25 22.02,8.25 9.02,0 16.26,-2.78 21.71,-8.34 5.45,-5.55 8.18,-13.15 8.18,-22.81 0,-7.34 -1.67,-13.37 -5.04,-18.08 -3.35,-4.72 -8.44,-7.87 -15.26,-9.44zm87.45 56.78l7.56 0 -29.1 -110.1 -8.02 0 -29.09 110.1 7.55 0 7.23 -28.15 36.65 0 7.23 28.15zm-42.15 -34.76l11.49 -45.14 5.03 -20.92 0.15 0 5.03 20.92 11.48 45.14 -33.19 0zm115.77 34.76l-26.74 -57.1 25.32 -53 -7.87 0 -21.55 46.24 -21.55 -46.24 -8.02 0 25.49 53 -26.74 57.1 7.87 0 22.96 -50.17 22.97 50.17 7.87 0zm40.74 1.89c9.02,0 16.1,-2.64 21.23,-7.94 5.14,-5.3 8.07,-12.92 8.81,-22.89l-6.92 0c-1.36,16.26 -9.07,24.38 -23.12,24.38 -6.72,0 -12.03,-2.23 -15.97,-6.69 -3.93,-4.45 -5.89,-10.98 -5.89,-19.58l0 -48.44c0,-8.6 1.91,-15.13 5.74,-19.59 3.83,-4.46 9.09,-6.68 15.81,-6.68 13.84,0 21.39,8.13 22.65,24.38l6.92 0c-0.63,-9.96 -3.49,-17.58 -8.57,-22.88 -5.09,-5.3 -12.09,-7.95 -21,-7.95 -8.71,0 -15.63,2.84 -20.77,8.5 -5.14,5.66 -7.7,13.74 -7.7,24.22l0 48.44c0,10.49 2.59,18.56 7.79,24.22 5.19,5.66 12.19,8.49 21,8.49zm95.63 -111.98l-56.47 0 0 6.76 24.54 0 0 103.34 7.08 0 0 -103.34 24.85 0 0 -6.76zm57.72 110.1l7.55 0 -29.1 -110.1 -8.02 0 -29.1 110.1 7.55 0 7.23 -28.15 36.65 0 7.24 28.15zm-42.15 -34.76l11.49 -45.14 5.03 -20.92 0.16 0 5.03 20.92 11.48 45.14 -33.19 0zm113.88 -75.34l0 50.64 -42.31 0 0 -50.64 -7.07 0 0 110.1 7.07 0 0 -52.69 42.31 0 0 52.69 7.24 0 0 -110.1 -7.24 0z"/>
 </g>
</svg>